<svg width="24" height="25" viewBox="0 0 24 25" fill="none" xmlns="http://www.w3.org/2000/svg">
<path d="M20 10.7739C20 16.7739 12 22.7739 12 22.7739C12 22.7739 4 16.7739 4 10.7739C4 8.65219 4.84285 6.61736 6.34315 5.11707C7.84344 3.61678 9.87827 2.77393 12 2.77393C14.1217 2.77393 16.1566 3.61678 17.6569 5.11707C19.1571 6.61736 20 8.65219 20 10.7739V10.7739Z" stroke="#242424" stroke-width="1.5" stroke-linecap="round" stroke-linejoin="round"/>
<path d="M12 13.7739C13.6569 13.7739 15 12.4308 15 10.7739C15 9.11707 13.6569 7.77393 12 7.77393C10.3431 7.77393 9 9.11707 9 10.7739C9 12.4308 10.3431 13.7739 12 13.7739Z" stroke="#242424" stroke-width="1.5" stroke-linecap="round" stroke-linejoin="round"/>
</svg>
